<?xml version="1.0" encoding="utf-8"?>
<!-- Generator: Adobe Illustrator 22.1.0, SVG Export Plug-In . SVG Version: 6.00 Build 0)  -->
<svg version="1.1" id="Layer_1" xmlns="http://www.w3.org/2000/svg" xmlns:xlink="http://www.w3.org/1999/xlink" x="0px" y="0px"
	 viewBox="0 0 23 23" style="enable-background:new 0 0 23 23;" xml:space="preserve">
<style type="text/css">
	.st0{fill:#FFFFFF;}
</style>
<path class="st0" d="M18.9,3.2c0.5,0,0.9,0.4,0.9,0.9v14.8c0,0.5-0.4,0.9-0.9,0.9H4.1c-0.5,0-0.9-0.4-0.9-0.9V4.1
	c0-0.5,0.4-0.9,0.9-0.9H18.9 M18.9,1.5H4.1c-1.4,0-2.6,1.2-2.6,2.6v14.8c0,1.4,1.2,2.6,2.6,2.6h14.8c1.4,0,2.6-1.2,2.6-2.6V4.1
	C21.5,2.7,20.3,1.5,18.9,1.5z"/>
</svg>
